<svg width="32" height="32" viewBox="0 0 32 32" fill="none" xmlns="http://www.w3.org/2000/svg">
<style>
    @media (prefers-color-scheme: dark) {
        .bg { fill: transparent }
    }
</style>
<g clip-path="url(#clip0_647_14)">
<circle class="bg" cx="16" cy="16" r="16" fill="#191919"/>
<path d="M16.1559 26C14.2997 26 12.6845 25.6167 11.3102 24.8501C9.93596 24.0653 8.87402 22.952 8.12441 21.5101C7.3748 20.05 7 18.316 7 16.3084C7 14.8117 7.23202 13.4885 7.69606 12.3386C8.17795 11.1705 8.84724 10.194 9.70394 9.40922C10.5606 8.6244 11.5601 8.03122 12.7024 7.62968C13.8446 7.20989 15.094 7 16.4504 7C17.6819 7 18.8509 7.13689 19.9575 7.41066C21.064 7.66619 22.01 7.98559 22.7953 8.36888C22.6882 8.98943 22.6079 9.65562 22.5543 10.3674C22.5186 11.0793 22.5008 11.8276 22.5008 12.6124C22.1974 12.7402 21.8672 12.8223 21.5102 12.8588C21.1533 12.8953 20.7963 12.9135 20.4394 12.9135C20.4037 11.8002 20.2073 10.9424 19.8504 10.3401C19.5113 9.7195 19.0472 9.28146 18.4583 9.02594C17.8871 8.77041 17.2268 8.64265 16.4772 8.64265C15.2457 8.64265 14.2373 8.98031 13.452 9.65562C12.6845 10.3309 12.1134 11.207 11.7386 12.2839C11.3816 13.3425 11.2031 14.4741 11.2031 15.6787C11.2031 17.2848 11.4084 18.7358 11.8189 20.0317C12.2472 21.3276 12.863 22.3497 13.6661 23.098C14.4693 23.8463 15.442 24.2205 16.5843 24.2205C16.9769 24.2205 17.3071 24.2022 17.5748 24.1657C17.8425 24.1292 18.1102 24.0562 18.378 23.9467C18.6457 23.8372 18.8598 23.6547 19.0205 23.3991C19.1811 23.1254 19.2614 22.6417 19.2614 21.9481V20.7983C19.2614 20.1047 19.2079 19.6028 19.1008 19.2925C19.0115 18.964 18.8152 18.745 18.5118 18.6354C18.2084 18.5077 17.7622 18.4347 17.1732 18.4164C17.1018 18.1974 17.0483 17.9419 17.0126 17.6499C16.9948 17.3578 16.9858 17.0476 16.9858 16.719C17.432 16.7373 17.9853 16.7555 18.6457 16.7738C19.306 16.792 19.9218 16.8012 20.4929 16.8012C21.0462 16.8012 21.6619 16.8012 22.3402 16.8012C23.0184 16.7829 23.5717 16.7647 24 16.7464C24 17.0019 23.9911 17.2848 23.9732 17.5951C23.9554 17.8871 23.9108 18.1609 23.8394 18.4164C23.5181 18.4347 23.2682 18.4986 23.0898 18.6081C22.9291 18.7176 22.822 18.9275 22.7685 19.2378C22.7328 19.5298 22.715 19.9769 22.715 20.5793V21.5101C22.715 22.0759 22.7417 22.5231 22.7953 22.8516C22.8488 23.1801 22.9559 23.5269 23.1165 23.8919C22.3134 24.4942 21.3139 24.9962 20.1181 25.3977C18.9223 25.7992 17.6016 26 16.1559 26Z" fill="white"/>
</g>
<defs>
<clipPath id="clip0_647_14">
<rect width="32" height="32" rx="16" fill="white"/>
</clipPath>
</defs>
</svg>
